<svg id="l_d_2332" xmlns="http://www.w3.org/2000/svg" xmlns:xlink="http://www.w3.org/1999/xlink" viewBox="0 0 45 45" width="45" height="45" preserveAspectRatio="xMidYMid meet" style="width: 100%; height: 100%; content-visibility: visible;"><defs id="l_d_2333"><clipPath id="__lottie_element_1004"><rect id="l_d_2336" width="45" height="45" x="0" y="0"></rect></clipPath><g id="__lottie_element_1007"><g id="l_d_2337" style="display: none;"><g id="l_d_2342"><path id="l_d_2343"></path></g></g></g><mask id="__lottie_element_1007_1" mask-type="alpha"><use id="l_d_2356" xlink:href="#__lottie_element_1007"></use></mask><g id="__lottie_element_1022"><g id="l_d_2375" style="display: none;"><g id="l_d_2380"><path id="l_d_2381"></path></g></g></g><mask id="__lottie_element_1022_1" mask-type="alpha"><use id="l_d_2389" xlink:href="#__lottie_element_1022"></use></mask><g id="__lottie_element_1007"><g id="l_d_2337" style="display: none;"><g id="l_d_2342"><path id="l_d_2343"></path></g></g></g><g id="__lottie_element_1022"><g id="l_d_2375" style="display: none;"><g id="l_d_2380"><path id="l_d_2381"></path></g></g></g></defs><g id="l_d_2334" clip-path="url(#__lottie_element_1004)"><g id="l_d_2383" mask="url(#__lottie_element_1022_1)" style="display: none;"><g id="l_d_2382"><g id="l_d_2386"><path id="l_d_2387" stroke-linecap="butt" stroke-linejoin="miter" fill-opacity="0" stroke-miterlimit="4"></path></g></g></g><g id="l_d_2369" transform="matrix(1,0,0,1,-22.625,-17.5)" opacity="1" style="display: block;"><g id="l_d_2373" opacity="1" transform="matrix(1,0,0,1,40,40)"><path id="l_d_2374" stroke-linecap="butt" stroke-linejoin="miter" fill-opacity="0" stroke-miterlimit="4" stroke="#222222" stroke-opacity="1" stroke-width="2px" d=" M-10,-12 C-10,-12 10,-12 10,-12 C12.208999633789062,-12 14,-10.208999633789062 14,-8 C14,-8 14,8 14,8 C14,10.208999633789062 12.208999633789062,12 10,12 C10,12 -10,12 -10,12 C-12.208999633789062,12 -14,10.208999633789062 -14,8 C-14,8 -14,-8 -14,-8 C-14,-10.208999633789062 -12.208999633789062,-12 -10,-12z"></path></g></g><g id="l_d_2363" transform="matrix(1,0,0,1,-22.625,-17.5)" opacity="1" style="display: block;"><g id="l_d_2367" opacity="1" transform="matrix(1,0,0,1,40,40)"><path id="l_d_2368" stroke-linecap="butt" stroke-linejoin="miter" fill-opacity="0" stroke-miterlimit="4" stroke="#222222" stroke-opacity="1" stroke-width="2px" d=" M-2,2 C-2.062000036239624,2.875 -2,6 -2,6 C-2,6 2,6 2,6 C2,6 2,2 2,2 C2,2 6,2 6,2 C6,2 6,-2 6,-2 C6,-2 2,-2 2,-2 C2,-2 2,-6 2,-6 C2,-6 -2,-6 -2,-6 C-2,-6 -2,-2 -2,-2 C-2,-2 -6,-2 -6,-2 C-6,-2 -6,2 -6,2 C-6,2 -3,1.937999963760376 -2,2z"></path></g></g><g id="l_d_2357" style="display: none;"><g id="l_d_2361"><path id="l_d_2362" stroke-linecap="butt" stroke-linejoin="miter" fill-opacity="0" stroke-miterlimit="4"></path></g></g><g id="l_d_2345" mask="url(#__lottie_element_1007_1)" style="display: none;"><g id="l_d_2344"><g id="l_d_2348"><g id="l_d_2349"><path id="l_d_2350" stroke-linecap="butt" stroke-linejoin="round" fill-opacity="0"></path></g><g id="l_d_2351"><path id="l_d_2352" stroke-linecap="butt" stroke-linejoin="round" fill-opacity="0"></path></g><g id="l_d_2353"><path id="l_d_2354"></path></g></g></g></g></g></svg>