<svg id="l_d_2103" xmlns="http://www.w3.org/2000/svg" xmlns:xlink="http://www.w3.org/1999/xlink" viewBox="0 0 45 45" width="45" height="45" preserveAspectRatio="xMidYMid meet" style="width: 100%; height: 100%; content-visibility: visible;"><defs id="l_d_2104"><clipPath id="__lottie_element_909"><rect id="l_d_2107" width="45" height="45" x="0" y="0"></rect></clipPath><clipPath id="__lottie_element_951"><path id="l_d_2202" d="M0,0 L80,0 L80,80 L0,80z"></path></clipPath><g id="__lottie_element_954"><g id="l_d_2205" style="display: none;"><g id="l_d_2210"><path id="l_d_2211"></path></g></g></g><mask id="__lottie_element_954_1" mask-type="alpha"><use id="l_d_2219" xlink:href="#__lottie_element_954"></use></mask><clipPath id="__lottie_element_961"><path id="l_d_2222" fill="#ffffff" clip-rule="nonzero" d=" M41.37099838256836,34.875 C41.37099838256836,34.875 35,34.875 35,34.875 C35,34.875 35,57.104000091552734 35,57.104000091552734 C35,57.104000091552734 41.37099838256836,57.104000091552734 41.37099838256836,57.104000091552734 C41.37099838256836,57.104000091552734 41.37099838256836,34.875 41.37099838256836,34.875" fill-opacity="1"></path></clipPath><clipPath id="__lottie_element_964"><path id="l_d_2231" d="M0,0 L80,0 L80,80 L0,80z"></path></clipPath><g id="__lottie_element_967"><g id="l_d_2234" style="display: none;"><g id="l_d_2239"><path id="l_d_2240"></path></g></g></g><mask id="__lottie_element_967_1" mask-type="alpha"><use id="l_d_2248" xlink:href="#__lottie_element_967"></use></mask><clipPath id="__lottie_element_974"><path id="l_d_2251" fill="#ffffff" clip-rule="nonzero" d=" M41.37099838256836,34.875 C41.37099838256836,34.875 35,34.875 35,34.875 C35,34.875 35,57.104000091552734 35,57.104000091552734 C35,57.104000091552734 41.37099838256836,57.104000091552734 41.37099838256836,57.104000091552734 C41.37099838256836,57.104000091552734 41.37099838256836,34.875 41.37099838256836,34.875" fill-opacity="1"></path></clipPath><clipPath id="__lottie_element_977"><path id="l_d_2260" d="M0,0 L80,0 L80,80 L0,80z"></path></clipPath><g id="__lottie_element_980"><g id="l_d_2263" style="display: none;"><g id="l_d_2268"><path id="l_d_2269"></path></g></g></g><mask id="__lottie_element_980_1" mask-type="alpha"><use id="l_d_2277" xlink:href="#__lottie_element_980"></use></mask><clipPath id="__lottie_element_987"><path id="l_d_2280" fill="#ffffff" clip-rule="nonzero" d=" M41.37099838256836,34.875 C41.37099838256836,34.875 35,34.875 35,34.875 C35,34.875 35,57.104000091552734 35,57.104000091552734 C35,57.104000091552734 41.37099838256836,57.104000091552734 41.37099838256836,57.104000091552734 C41.37099838256836,57.104000091552734 41.37099838256836,34.875 41.37099838256836,34.875" fill-opacity="1"></path></clipPath><g id="__lottie_element_954"><g id="l_d_2205" style="display: none;"><g id="l_d_2210"><path id="l_d_2211"></path></g></g></g><g id="__lottie_element_967"><g id="l_d_2234" style="display: none;"><g id="l_d_2239"><path id="l_d_2240"></path></g></g></g><g id="__lottie_element_980"><g id="l_d_2263" style="display: none;"><g id="l_d_2268"><path id="l_d_2269"></path></g></g></g></defs><g id="l_d_2105" clip-path="url(#__lottie_element_909)"><g id="l_d_2286" transform="matrix(1,0,0,1,-26,-17.25)" opacity="1" style="display: block;"><g id="l_d_2290" opacity="1" transform="matrix(1,0,0,1,36.5,40.5)"><path id="l_d_2291" stroke-linecap="butt" stroke-linejoin="miter" fill-opacity="0" stroke-miterlimit="4" stroke="#222222" stroke-opacity="1" stroke-width="2px" d=" M7.5,-10.5 C7.5,-10.5 7.5,-12.5 7.5,-12.5 C7.5,-13.604999542236328 6.605000019073486,-14.5 5.5,-14.5 C5.5,-14.5 -5.5,-14.5 -5.5,-14.5 C-6.605000019073486,-14.5 -7.5,-13.604999542236328 -7.5,-12.5 C-7.5,-12.5 -7.5,14.5 -7.5,14.5 C-7.5,14.5 -7.5,14.5 -7.5,14.5"></path></g><g id="l_d_2292" opacity="1" transform="matrix(1,0,0,1,44,32)"><path id="l_d_2293" stroke-linecap="butt" stroke-linejoin="round" fill-opacity="0" stroke="#222222" stroke-opacity="1" stroke-width="2px" d=" M6,-2 C6,-2 -6,-2 -6,-2 C-6,-2 -6,2 -6,2 C-6,2 6,2 6,2 C6,2 6,-2 6,-2z"></path></g><g id="l_d_2294" opacity="1" transform="matrix(1,0,0,1,44,34)"><path id="l_d_2295" stroke-linecap="butt" stroke-linejoin="round" fill-opacity="0" stroke="#222222" stroke-opacity="1" stroke-width="2px" d=" M-9,0 C-9,0 9,0 9,0"></path></g></g><g id="l_d_2257" clip-path="url(#__lottie_element_977)" transform="matrix(1,0,0,1,-26,-17.25)" opacity="1" style="display: block;"><g id="l_d_2278" clip-path="url(#__lottie_element_987)" transform="matrix(1,0,0,1,0,0)" opacity="1" style="display: block;"><g id="l_d_2283" opacity="1" transform="matrix(1,0,0,1,0,0)"><g id="l_d_2284" opacity="1" transform="matrix(1,0,0,1,39,54)"><path id="l_d_2285" fill="#222222" fill-opacity="1" d=" M5,-17 C4.447999954223633,-17 4,-16.552000045776367 4,-16 C4,-15.447999954223633 4.447999954223633,-15 5,-15 C5.552000045776367,-15 6,-15.447999954223633 6,-16 C6,-16.552000045776367 5.552000045776367,-17 5,-17z M0,-17 C-0.5519999861717224,-17 -1,-16.552000045776367 -1,-16 C-1,-15.447999954223633 -0.5519999861717224,-15 0,-15 C0.5519999861717224,-15 1,-15.447999954223633 1,-16 C1,-16.552000045776367 0.5519999861717224,-17 0,-17z M10,-17 C9.447999954223633,-17 9,-16.552000045776367 9,-16 C9,-15.447999954223633 9.447999954223633,-15 10,-15 C10.552000045776367,-15 11,-15.447999954223633 11,-16 C11,-16.552000045776367 10.552000045776367,-17 10,-17z M5,-13 C4.447999954223633,-13 4,-12.552000045776367 4,-12 C4,-11.447999954223633 4.447999954223633,-11 5,-11 C5.552000045776367,-11 6,-11.447999954223633 6,-12 C6,-12.552000045776367 5.552000045776367,-13 5,-13z M10,-13 C9.447999954223633,-13 9,-12.552000045776367 9,-12 C9,-11.447999954223633 9.447999954223633,-11 10,-11 C10.552000045776367,-11 11,-11.447999954223633 11,-12 C11,-12.552000045776367 10.552000045776367,-13 10,-13z M0,-13 C-0.5519999861717224,-13 -1,-12.552000045776367 -1,-12 C-1,-11.447999954223633 -0.5519999861717224,-11 0,-11 C0.5519999861717224,-11 1,-11.447999954223633 1,-12 C1,-12.552000045776367 0.5519999861717224,-13 0,-13z M5,-9 C4.447999954223633,-9 4,-8.552000045776367 4,-8 C4,-7.447999954223633 4.447999954223633,-7 5,-7 C5.552000045776367,-7 6,-7.447999954223633 6,-8 C6,-8.552000045776367 5.552000045776367,-9 5,-9z M10,-9 C9.447999954223633,-9 9,-8.552000045776367 9,-8 C9,-7.447999954223633 9.447999954223633,-7 10,-7 C10.552000045776367,-7 11,-7.447999954223633 11,-8 C11,-8.552000045776367 10.552000045776367,-9 10,-9z M0,-9 C-0.5519999861717224,-9 -1,-8.552000045776367 -1,-8 C-1,-7.447999954223633 -0.5519999861717224,-7 0,-7 C0.5519999861717224,-7 1,-7.447999954223633 1,-8 C1,-8.552000045776367 0.5519999861717224,-9 0,-9z M5,-5 C4.447999954223633,-5 4,-4.552000045776367 4,-4 C4,-3.447999954223633 4.447999954223633,-3 5,-3 C5.552000045776367,-3 6,-3.447999954223633 6,-4 C6,-4.552000045776367 5.552000045776367,-5 5,-5z M10,-5 C9.447999954223633,-5 9,-4.552000045776367 9,-4 C9,-3.447999954223633 9.447999954223633,-3 10,-3 C10.552000045776367,-3 11,-3.447999954223633 11,-4 C11,-4.552000045776367 10.552000045776367,-5 10,-5z M0,-5 C-0.5519999861717224,-5 -1,-4.552000045776367 -1,-4 C-1,-3.447999954223633 -0.5519999861717224,-3 0,-3 C0.5519999861717224,-3 1,-3.447999954223633 1,-4 C1,-4.552000045776367 0.5519999861717224,-5 0,-5z M5,-1 C4.447999954223633,-1 4,-0.5519999861717224 4,0 C4,0.5519999861717224 4.447999954223633,1 5,1 C5.552000045776367,1 6,0.5519999861717224 6,0 C6,-0.5519999861717224 5.552000045776367,-1 5,-1z M10,-1 C9.447999954223633,-1 9,-0.5519999861717224 9,0 C9,0.5519999861717224 9.447999954223633,1 10,1 C10.552000045776367,1 11,0.5519999861717224 11,0 C11,-0.5519999861717224 10.552000045776367,-1 10,-1z M0,-1 C-0.5519999861717224,-1 -1,-0.5519999861717224 -1,0 C-1,0.5519999861717224 -0.5519999861717224,1 0,1 C0.5519999861717224,1 1,0.5519999861717224 1,0 C1,-0.5519999861717224 0.5519999861717224,-1 0,-1z"></path></g></g></g><g id="l_d_2271" mask="url(#__lottie_element_980_1)" style="display: block;"><g id="l_d_2270" transform="matrix(1,0,0,1,40,30)" opacity="1"><g id="l_d_2274" opacity="1" transform="matrix(1,0,0,1,0,0)"><path id="l_d_2275" stroke-linecap="round" stroke-linejoin="miter" fill-opacity="0" stroke-miterlimit="4" stroke-dasharray=" 0.1 4" stroke-dashoffset="6" stroke="#222222" stroke-opacity="1" stroke-width="2px" d=" M-1.00600004196167,-29.00200080871582 C-1.00600004196167,-29.00200080871582 -1.0119999647140503,30.87299919128418 -1.0119999647140503,30.87299919128418"></path></g></g></g></g><g id="l_d_2228" clip-path="url(#__lottie_element_964)" transform="matrix(1,0,0,1,-21,-17.25)" opacity="1" style="display: block;"><g id="l_d_2249" clip-path="url(#__lottie_element_974)" transform="matrix(1,0,0,1,0,0)" opacity="1" style="display: block;"><g id="l_d_2254" opacity="1" transform="matrix(1,0,0,1,0,0)"><g id="l_d_2255" opacity="1" transform="matrix(1,0,0,1,39,54)"><path id="l_d_2256" fill="#222222" fill-opacity="1" d=" M5,-17 C4.447999954223633,-17 4,-16.552000045776367 4,-16 C4,-15.447999954223633 4.447999954223633,-15 5,-15 C5.552000045776367,-15 6,-15.447999954223633 6,-16 C6,-16.552000045776367 5.552000045776367,-17 5,-17z M0,-17 C-0.5519999861717224,-17 -1,-16.552000045776367 -1,-16 C-1,-15.447999954223633 -0.5519999861717224,-15 0,-15 C0.5519999861717224,-15 1,-15.447999954223633 1,-16 C1,-16.552000045776367 0.5519999861717224,-17 0,-17z M10,-17 C9.447999954223633,-17 9,-16.552000045776367 9,-16 C9,-15.447999954223633 9.447999954223633,-15 10,-15 C10.552000045776367,-15 11,-15.447999954223633 11,-16 C11,-16.552000045776367 10.552000045776367,-17 10,-17z M5,-13 C4.447999954223633,-13 4,-12.552000045776367 4,-12 C4,-11.447999954223633 4.447999954223633,-11 5,-11 C5.552000045776367,-11 6,-11.447999954223633 6,-12 C6,-12.552000045776367 5.552000045776367,-13 5,-13z M10,-13 C9.447999954223633,-13 9,-12.552000045776367 9,-12 C9,-11.447999954223633 9.447999954223633,-11 10,-11 C10.552000045776367,-11 11,-11.447999954223633 11,-12 C11,-12.552000045776367 10.552000045776367,-13 10,-13z M0,-13 C-0.5519999861717224,-13 -1,-12.552000045776367 -1,-12 C-1,-11.447999954223633 -0.5519999861717224,-11 0,-11 C0.5519999861717224,-11 1,-11.447999954223633 1,-12 C1,-12.552000045776367 0.5519999861717224,-13 0,-13z M5,-9 C4.447999954223633,-9 4,-8.552000045776367 4,-8 C4,-7.447999954223633 4.447999954223633,-7 5,-7 C5.552000045776367,-7 6,-7.447999954223633 6,-8 C6,-8.552000045776367 5.552000045776367,-9 5,-9z M10,-9 C9.447999954223633,-9 9,-8.552000045776367 9,-8 C9,-7.447999954223633 9.447999954223633,-7 10,-7 C10.552000045776367,-7 11,-7.447999954223633 11,-8 C11,-8.552000045776367 10.552000045776367,-9 10,-9z M0,-9 C-0.5519999861717224,-9 -1,-8.552000045776367 -1,-8 C-1,-7.447999954223633 -0.5519999861717224,-7 0,-7 C0.5519999861717224,-7 1,-7.447999954223633 1,-8 C1,-8.552000045776367 0.5519999861717224,-9 0,-9z M5,-5 C4.447999954223633,-5 4,-4.552000045776367 4,-4 C4,-3.447999954223633 4.447999954223633,-3 5,-3 C5.552000045776367,-3 6,-3.447999954223633 6,-4 C6,-4.552000045776367 5.552000045776367,-5 5,-5z M10,-5 C9.447999954223633,-5 9,-4.552000045776367 9,-4 C9,-3.447999954223633 9.447999954223633,-3 10,-3 C10.552000045776367,-3 11,-3.447999954223633 11,-4 C11,-4.552000045776367 10.552000045776367,-5 10,-5z M0,-5 C-0.5519999861717224,-5 -1,-4.552000045776367 -1,-4 C-1,-3.447999954223633 -0.5519999861717224,-3 0,-3 C0.5519999861717224,-3 1,-3.447999954223633 1,-4 C1,-4.552000045776367 0.5519999861717224,-5 0,-5z M5,-1 C4.447999954223633,-1 4,-0.5519999861717224 4,0 C4,0.5519999861717224 4.447999954223633,1 5,1 C5.552000045776367,1 6,0.5519999861717224 6,0 C6,-0.5519999861717224 5.552000045776367,-1 5,-1z M10,-1 C9.447999954223633,-1 9,-0.5519999861717224 9,0 C9,0.5519999861717224 9.447999954223633,1 10,1 C10.552000045776367,1 11,0.5519999861717224 11,0 C11,-0.5519999861717224 10.552000045776367,-1 10,-1z M0,-1 C-0.5519999861717224,-1 -1,-0.5519999861717224 -1,0 C-1,0.5519999861717224 -0.5519999861717224,1 0,1 C0.5519999861717224,1 1,0.5519999861717224 1,0 C1,-0.5519999861717224 0.5519999861717224,-1 0,-1z"></path></g></g></g><g id="l_d_2242" mask="url(#__lottie_element_967_1)" style="display: block;"><g id="l_d_2241" transform="matrix(1,0,0,1,40,30)" opacity="1"><g id="l_d_2245" opacity="1" transform="matrix(1,0,0,1,0,0)"><path id="l_d_2246" stroke-linecap="round" stroke-linejoin="miter" fill-opacity="0" stroke-miterlimit="4" stroke-dasharray=" 0.1 4" stroke-dashoffset="6" stroke="#222222" stroke-opacity="1" stroke-width="2px" d=" M-1.00600004196167,-29.00200080871582 C-1.00600004196167,-29.00200080871582 -1.0119999647140503,30.87299919128418 -1.0119999647140503,30.87299919128418"></path></g></g></g></g><g id="l_d_2199" clip-path="url(#__lottie_element_951)" transform="matrix(1,0,0,1,-16.08300018310547,-17.25)" opacity="1" style="display: block;"><g id="l_d_2220" clip-path="url(#__lottie_element_961)" transform="matrix(1,0,0,1,0,0)" opacity="1" style="display: block;"><g id="l_d_2225" opacity="1" transform="matrix(1,0,0,1,0,0)"><g id="l_d_2226" opacity="1" transform="matrix(1,0,0,1,39,54)"><path id="l_d_2227" fill="#222222" fill-opacity="1" d=" M5,-17 C4.447999954223633,-17 4,-16.552000045776367 4,-16 C4,-15.447999954223633 4.447999954223633,-15 5,-15 C5.552000045776367,-15 6,-15.447999954223633 6,-16 C6,-16.552000045776367 5.552000045776367,-17 5,-17z M0,-17 C-0.5519999861717224,-17 -1,-16.552000045776367 -1,-16 C-1,-15.447999954223633 -0.5519999861717224,-15 0,-15 C0.5519999861717224,-15 1,-15.447999954223633 1,-16 C1,-16.552000045776367 0.5519999861717224,-17 0,-17z M10,-17 C9.447999954223633,-17 9,-16.552000045776367 9,-16 C9,-15.447999954223633 9.447999954223633,-15 10,-15 C10.552000045776367,-15 11,-15.447999954223633 11,-16 C11,-16.552000045776367 10.552000045776367,-17 10,-17z M5,-13 C4.447999954223633,-13 4,-12.552000045776367 4,-12 C4,-11.447999954223633 4.447999954223633,-11 5,-11 C5.552000045776367,-11 6,-11.447999954223633 6,-12 C6,-12.552000045776367 5.552000045776367,-13 5,-13z M10,-13 C9.447999954223633,-13 9,-12.552000045776367 9,-12 C9,-11.447999954223633 9.447999954223633,-11 10,-11 C10.552000045776367,-11 11,-11.447999954223633 11,-12 C11,-12.552000045776367 10.552000045776367,-13 10,-13z M0,-13 C-0.5519999861717224,-13 -1,-12.552000045776367 -1,-12 C-1,-11.447999954223633 -0.5519999861717224,-11 0,-11 C0.5519999861717224,-11 1,-11.447999954223633 1,-12 C1,-12.552000045776367 0.5519999861717224,-13 0,-13z M5,-9 C4.447999954223633,-9 4,-8.552000045776367 4,-8 C4,-7.447999954223633 4.447999954223633,-7 5,-7 C5.552000045776367,-7 6,-7.447999954223633 6,-8 C6,-8.552000045776367 5.552000045776367,-9 5,-9z M10,-9 C9.447999954223633,-9 9,-8.552000045776367 9,-8 C9,-7.447999954223633 9.447999954223633,-7 10,-7 C10.552000045776367,-7 11,-7.447999954223633 11,-8 C11,-8.552000045776367 10.552000045776367,-9 10,-9z M0,-9 C-0.5519999861717224,-9 -1,-8.552000045776367 -1,-8 C-1,-7.447999954223633 -0.5519999861717224,-7 0,-7 C0.5519999861717224,-7 1,-7.447999954223633 1,-8 C1,-8.552000045776367 0.5519999861717224,-9 0,-9z M5,-5 C4.447999954223633,-5 4,-4.552000045776367 4,-4 C4,-3.447999954223633 4.447999954223633,-3 5,-3 C5.552000045776367,-3 6,-3.447999954223633 6,-4 C6,-4.552000045776367 5.552000045776367,-5 5,-5z M10,-5 C9.447999954223633,-5 9,-4.552000045776367 9,-4 C9,-3.447999954223633 9.447999954223633,-3 10,-3 C10.552000045776367,-3 11,-3.447999954223633 11,-4 C11,-4.552000045776367 10.552000045776367,-5 10,-5z M0,-5 C-0.5519999861717224,-5 -1,-4.552000045776367 -1,-4 C-1,-3.447999954223633 -0.5519999861717224,-3 0,-3 C0.5519999861717224,-3 1,-3.447999954223633 1,-4 C1,-4.552000045776367 0.5519999861717224,-5 0,-5z M5,-1 C4.447999954223633,-1 4,-0.5519999861717224 4,0 C4,0.5519999861717224 4.447999954223633,1 5,1 C5.552000045776367,1 6,0.5519999861717224 6,0 C6,-0.5519999861717224 5.552000045776367,-1 5,-1z M10,-1 C9.447999954223633,-1 9,-0.5519999861717224 9,0 C9,0.5519999861717224 9.447999954223633,1 10,1 C10.552000045776367,1 11,0.5519999861717224 11,0 C11,-0.5519999861717224 10.552000045776367,-1 10,-1z M0,-1 C-0.5519999861717224,-1 -1,-0.5519999861717224 -1,0 C-1,0.5519999861717224 -0.5519999861717224,1 0,1 C0.5519999861717224,1 1,0.5519999861717224 1,0 C1,-0.5519999861717224 0.5519999861717224,-1 0,-1z"></path></g></g></g><g id="l_d_2213" mask="url(#__lottie_element_954_1)" style="display: block;"><g id="l_d_2212" transform="matrix(1,0,0,1,40,30)" opacity="1"><g id="l_d_2216" opacity="1" transform="matrix(1,0,0,1,0,0)"><path id="l_d_2217" stroke-linecap="round" stroke-linejoin="miter" fill-opacity="0" stroke-miterlimit="4" stroke-dasharray=" 0.1 4" stroke-dashoffset="6" stroke="#222222" stroke-opacity="1" stroke-width="2px" d=" M-1.00600004196167,-29.00200080871582 C-1.00600004196167,-29.00200080871582 -1.0119999647140503,30.87299919128418 -1.0119999647140503,30.87299919128418"></path></g></g></g></g><g id="l_d_2192" style="display: none;"><g id="l_d_2196"><g id="l_d_2197"><path id="l_d_2198"></path></g></g></g><g id="l_d_2185" style="display: none;"><g id="l_d_2189"><g id="l_d_2190"><path id="l_d_2191"></path></g></g></g><g id="l_d_2178" style="display: none;"><g id="l_d_2182"><g id="l_d_2183"><path id="l_d_2184"></path></g></g></g><g id="l_d_2171" style="display: none;"><g id="l_d_2175"><g id="l_d_2176"><path id="l_d_2177"></path></g></g></g><g id="l_d_2164" style="display: none;"><g id="l_d_2168"><g id="l_d_2169"><path id="l_d_2170"></path></g></g></g><g id="l_d_2157" style="display: none;"><g id="l_d_2161"><g id="l_d_2162"><path id="l_d_2163"></path></g></g></g><g id="l_d_2150" style="display: none;"><g id="l_d_2154"><g id="l_d_2155"><path id="l_d_2156"></path></g></g></g><g id="l_d_2143" style="display: none;"><g id="l_d_2147"><g id="l_d_2148"><path id="l_d_2149"></path></g></g></g><g id="l_d_2136" style="display: none;"><g id="l_d_2140"><g id="l_d_2141"><path id="l_d_2142"></path></g></g></g><g id="l_d_2129" style="display: none;"><g id="l_d_2133"><g id="l_d_2134"><path id="l_d_2135"></path></g></g></g><g id="l_d_2122" style="display: none;"><g id="l_d_2126"><g id="l_d_2127"><path id="l_d_2128"></path></g></g></g><g id="l_d_2115" style="display: none;"><g id="l_d_2119"><g id="l_d_2120"><path id="l_d_2121"></path></g></g></g><g id="l_d_2108" style="display: none;"><g id="l_d_2112"><g id="l_d_2113"><path id="l_d_2114"></path></g></g></g></g></svg>